<?xml version="1.0" standalone="no"?>
<!DOCTYPE svg PUBLIC "-//W3C//DTD SVG 20010904//EN"
 "http://www.w3.org/TR/2001/REC-SVG-20010904/DTD/svg10.dtd">
<svg version="1.0" xmlns="http://www.w3.org/2000/svg"
 width="640.000000pt" height="1280.000000pt" viewBox="0 0 640.000000 1280.000000"
 preserveAspectRatio="xMidYMid meet">
<g transform="translate(0.000000,1280.000000) scale(0.100000,-0.100000)"
fill="#e6f2f4" stroke="none">
<path d="M3023 12780 c-190 -34 -321 -84 -458 -175 -169 -112 -295 -256 -385
-438 -117 -239 -146 -508 -83 -767 39 -157 143 -355 244 -465 l43 -46 78 78
c43 43 78 81 78 85 0 5 -25 38 -55 75 -170 211 -231 508 -160 778 52 198 197
396 375 510 384 249 899 163 1175 -196 202 -261 242 -614 105 -916 -32 -70
-96 -171 -138 -215 -30 -33 -30 -34 74 -114 60 -45 79 -56 92 -48 25 15 117
139 156 209 84 150 125 300 133 482 7 159 -5 246 -53 399 -94 296 -325 553
-609 677 -103 45 -166 63 -306 87 -136 24 -172 24 -306 0z"/>
<path d="M3113 12020 c-60 -12 -119 -45 -175 -98 -143 -134 -153 -356 -22
-501 24 -27 64 -61 89 -76 25 -14 45 -28 45 -31 0 -14 -290 -1209 -465 -1919
-69 -280 -180 -730 -246 -1000 -130 -526 -917 -3692 -1444 -5805 -178 -712
-322 -1296 -321 -1298 2 -1 591 -290 1310 -642 l1307 -639 1320 660 c1090 544
1319 663 1315 677 -21 70 -2486 9946 -2486 9959 1 10 24 34 52 53 29 19 69 58
90 85 156 207 44 511 -211 571 -62 15 -96 16 -158 4z m149 -248 c68 -39 78
-147 19 -206 -28 -28 -37 -31 -92 -31 -57 0 -62 2 -95 37 -28 31 -34 45 -34
83 0 53 21 99 52 116 56 30 98 30 150 1z m-184 -1596 l2 -208 -71 -74 c-40
-41 -76 -74 -81 -74 -16 0 -8 42 58 306 42 166 71 263 78 261 7 -2 12 -70 14
-211z m324 -93 c34 -138 59 -255 55 -259 -4 -5 -39 23 -77 61 l-70 69 0 197
c0 186 4 225 21 197 4 -7 36 -126 71 -265z m-324 -597 c2 -100 0 -117 -14
-123 -15 -6 -98 29 -153 64 l-23 15 83 84 c46 46 88 83 94 81 6 -2 11 -53 13
-121z m329 42 c40 -40 73 -78 73 -85 0 -16 -138 -86 -156 -79 -19 7 -21 236
-2 236 7 0 45 -33 85 -72z m-527 -343 c50 -25 90 -52 90 -59 0 -15 -277 -286
-292 -286 -13 0 -10 19 37 203 25 98 45 180 45 182 0 14 39 1 120 -40z m781
-143 c27 -102 43 -185 38 -188 -12 -7 -96 66 -213 184 l-88 90 23 15 c53 33
165 86 179 84 11 -1 28 -55 61 -185z m-583 -421 c2 -197 0 -232 -12 -237 -18
-7 -311 166 -311 183 0 18 294 295 308 290 9 -3 13 -65 15 -236z m399 97 c79
-78 143 -147 143 -154 0 -15 -287 -187 -300 -179 -11 7 -14 457 -3 468 3 4 9
7 11 7 3 0 70 -64 149 -142z m-709 -443 c142 -81 191 -114 190 -127 -3 -16
-541 -428 -560 -428 -14 0 -9 25 68 338 73 290 87 337 104 330 4 -2 93 -52
198 -113z m1058 93 c17 -27 162 -634 154 -642 -12 -12 -563 401 -558 417 5 13
365 235 385 236 6 1 15 -4 19 -11z m-749 -854 c2 -214 -1 -395 -6 -402 -12
-20 -643 296 -639 320 3 20 617 480 633 475 6 -2 11 -137 12 -393z m570 155
c166 -123 302 -229 303 -236 0 -16 -607 -326 -625 -319 -13 5 -15 62 -15 389
0 211 3 387 7 391 4 3 11 5 17 3 5 -2 146 -104 313 -228z m-1033 -604 c210
-103 336 -170 334 -178 -7 -20 -921 -678 -930 -669 -5 5 43 218 107 473 143
571 134 539 144 539 4 0 160 -74 345 -165z m1623 -321 c66 -263 122 -489 122
-502 1 -16 -4 -22 -14 -20 -26 5 -915 652 -915 666 0 14 657 344 674 339 6 -2
66 -219 133 -483z m-1159 -732 c2 -567 0 -643 -13 -648 -18 -7 -1030 538
-1030 555 0 17 1006 741 1025 738 13 -2 15 -83 18 -645z m766 278 c272 -195
495 -362 495 -370 1 -17 -1004 -564 -1019 -555 -11 7 -14 1277 -4 1288 10 9
-12 24 528 -363z m-1389 -874 c440 -240 506 -279 494 -290 -19 -19 -1428 -980
-1441 -984 -10 -2 -18 1 -18 7 0 17 379 1523 390 1549 l10 22 47 -24 c27 -13
260 -139 518 -280z m2235 -488 c107 -427 191 -780 188 -784 -9 -9 40 -42 -756
504 -413 284 -692 481 -690 489 4 18 1018 572 1043 570 18 -2 40 -82 215 -779z
m-1616 -24 c10 -25 7 -1777 -3 -1793 -7 -10 -171 77 -727 384 -396 218 -725
402 -733 410 -11 11 -5 19 40 52 107 76 1404 962 1410 963 4 0 10 -7 13 -16z
m978 -487 c392 -271 714 -500 716 -508 3 -18 -1424 -803 -1445 -795 -11 4 -13
177 -13 901 0 779 2 895 15 895 8 0 335 -222 727 -493z m-1909 -1078 c403
-221 738 -407 746 -415 8 -7 12 -16 9 -19 -11 -11 -1862 -786 -1890 -792 -16
-3 -28 -3 -28 1 0 12 401 1609 406 1618 3 4 10 8 16 8 5 0 339 -180 741 -401z
m2847 379 c10 -24 400 -1581 400 -1598 0 -5 -6 -10 -13 -10 -28 0 -1892 789
-1895 802 -2 8 264 159 740 421 409 224 746 407 751 407 4 0 12 -10 17 -22z
m-445 -1520 c501 -209 914 -384 918 -388 13 -11 49 -161 43 -176 -4 -11 -258
112 -943 455 -516 258 -947 477 -958 486 -20 16 -19 16 5 10 14 -4 435 -178
935 -387z m-1775 377 c0 -8 -1879 -945 -1895 -945 -8 0 -15 3 -15 8 1 21 40
156 48 164 8 8 1509 644 1777 753 59 24 85 30 85 20z m307 -1175 c2 -605 -1
-1041 -6 -1049 -8 -12 -215 88 -1054 506 -574 286 -1047 526 -1051 532 -9 13
2060 1051 2089 1048 20 -2 20 -10 22 -1037z m1298 523 c569 -285 1035 -524
1035 -531 0 -15 -2077 -1055 -2091 -1047 -5 4 -9 410 -9 1051 0 921 2 1044 15
1044 8 0 481 -233 1050 -517z"/>
</g>
</svg>
